<?xml version="1.0" standalone="no"?>
<!DOCTYPE svg PUBLIC "-//W3C//DTD SVG 20010904//EN"
 "http://www.w3.org/TR/2001/REC-SVG-20010904/DTD/svg10.dtd">
<svg version="1.0" xmlns="http://www.w3.org/2000/svg"
 width="680.000000pt" height="680.000000pt" viewBox="0 0 680.000000 680.000000"
 preserveAspectRatio="xMidYMid meet">
<metadata>
Created by potrace 1.14, written by Peter Selinger 2001-2017
</metadata>
<g transform="translate(0.000000,680.000000) scale(0.100000,-0.100000)"
fill="#000000" stroke="none">
<path d="M1872 4493 c-106 -219 -192 -404 -192 -410 0 -10 314 -13 1534 -13
1339 0 1544 -2 1608 -15 170 -36 309 -110 431 -231 51 -49 137 -162 137 -178
0 -4 -36 -6 -79 -6 -243 0 -516 -56 -725 -147 -525 -231 -912 -704 -1026
-1255 -20 -99 -40 -261 -40 -328 l0 -40 410 0 410 0 0 38 c0 20 6 73 14 117
69 392 345 678 741 771 59 14 163 18 650 23 l580 6 3 175 c4 216 -12 445 -38
568 -149 703 -719 1222 -1440 1311 -55 7 -550 11 -1435 11 l-1351 0 -192 -397z"/>
<path d="M1593 3872 c-16 -10 -304 -642 -297 -653 3 -5 560 -9 1281 -9 l1276
0 86 78 c243 221 456 358 650 421 77 25 200 42 261 35 44 -5 44 -5 19 10 -37
21 -236 72 -356 90 -56 9 -177 21 -270 26 -197 11 -2632 13 -2650 2z"/>
<path d="M1165 2938 c-281 -615 -482 -1065 -478 -1070 2 -5 147 -8 322 -8 254
0 321 3 330 13 6 8 56 112 110 233 l100 219 930 3 929 2 6 34 c24 128 126 363
224 520 34 54 62 100 62 102 0 2 -565 4 -1256 4 l-1255 0 -24 -52z"/>
</g>
</svg>
